<svg height="806.667" version="1" viewBox="0 0 605.000000 605.000000" width="806.667"
     xmlns="http://www.w3.org/2000/svg">
  <path
    d="M119.4 151.9c-10.1 2.5-19.8 10.4-24.2 19.9l-2.7 5.7v229l2.2 4.8c3.3 7 11.3 14.9 18.6 18.3l6.2 2.9h369l6.2-2.9c6.8-3.1 13.8-9.8 17.1-16.2 4.2-8.3 4.3-10.9 4-124.9l-.3-109-2.3-5.7c-3.2-8-9.9-15-18-19l-6.7-3.3-183-.2c-100.6 0-184.4.2-186.1.6zM299 250.5v6.4l-11.7.3-11.8.3-.3 40.2-.2 40.3h-16v-81h-24v-13h64v6.5zm49.8-5c10.2 3 15.5 10.4 15.5 21.5 0 7.6-2.6 13.7-7.3 17.2-3.6 2.6-3.7 3.4-.6 4.2 1.4.3 3.9 1.8 5.7 3.3 7.6 6.4 9.6 20.3 4.4 30.9-5.6 11.3-16.4 15.4-41.7 15.4H310v-94h16.8c12.2 0 18.3.4 22 1.5z"/>
  <path
    d="M326 269.5V283h7.3c10.6 0 14.7-3.8 14.7-13.5 0-9.4-4.8-13.5-16-13.5h-6v13.5zM326 310.1v15.1l9.6-.4 9.6-.3 3.4-3.7c3.4-3.8 3.9-5.8 3.4-12.8-.6-8.8-6.5-12.9-18.7-13H326v15.1zM206.9 449.2c0 .2-.2 7.8-.4 17-.3 12.8-.1 16.9.9 17.7.9.8 29.9 1 98.7.9l97.4-.3.3-17.8.2-17.7h-98.5c-54.2 0-98.5.1-98.6.2z"/>
</svg>
